<mxfile host="app.diagrams.net" modified="2023-04-04T08:57:56.501Z" agent="Mozilla/5.0 (Windows NT 10.0; Win64; x64) AppleWebKit/537.36 (KHTML, like Gecko) Chrome/111.0.0.0 Safari/537.36" etag="rPLymW97jkWe91Vg5Rf6" version="21.1.4" type="device" pages="2">
  <diagram name="QuanLySanPham" id="BBWXaiSNDoYRg9TJ9k4r">
    <mxGraphModel dx="1290" dy="1742" grid="1" gridSize="10" guides="1" tooltips="1" connect="1" arrows="1" fold="1" page="1" pageScale="1" pageWidth="827" pageHeight="1169" math="0" shadow="0">
      <root>
        <mxCell id="0" />
        <mxCell id="1" parent="0" />
        <mxCell id="Qg31qE5kq6Prw8yDMMe9-1" value="&lt;p style=&quot;margin:0px;margin-top:4px;text-align:center;&quot;&gt;&lt;i&gt;&amp;lt;&amp;lt;Interface&amp;gt;&amp;gt;&lt;/i&gt;&lt;br&gt;&lt;b&gt;ProductFactory&lt;/b&gt;&lt;/p&gt;&lt;hr size=&quot;1&quot;&gt;&lt;p style=&quot;margin:0px;margin-left:4px;&quot;&gt;+ createProduct(name:String, price:double):Product&lt;/p&gt;" style="verticalAlign=top;align=left;overflow=fill;fontSize=12;fontFamily=Helvetica;html=1;whiteSpace=wrap;" parent="1" vertex="1">
          <mxGeometry x="80" y="40" width="320" height="80" as="geometry" />
        </mxCell>
        <mxCell id="Qg31qE5kq6Prw8yDMMe9-2" value="ProductFactoryImpl" style="swimlane;fontStyle=1;align=center;verticalAlign=top;childLayout=stackLayout;horizontal=1;startSize=26;horizontalStack=0;resizeParent=1;resizeParentMax=0;resizeLast=0;collapsible=1;marginBottom=0;whiteSpace=wrap;html=1;" parent="1" vertex="1">
          <mxGeometry x="80" y="200" width="320" height="86" as="geometry" />
        </mxCell>
        <mxCell id="22c4XB-BZXuT_4FIts5C-12" value="" style="endArrow=block;dashed=1;endFill=0;endSize=12;html=1;rounded=0;" parent="Qg31qE5kq6Prw8yDMMe9-2" target="Qg31qE5kq6Prw8yDMMe9-1" edge="1">
          <mxGeometry width="160" relative="1" as="geometry">
            <mxPoint x="160" as="sourcePoint" />
            <mxPoint x="310" as="targetPoint" />
          </mxGeometry>
        </mxCell>
        <mxCell id="Qg31qE5kq6Prw8yDMMe9-3" value="+ field: type" style="text;strokeColor=none;fillColor=none;align=left;verticalAlign=top;spacingLeft=4;spacingRight=4;overflow=hidden;rotatable=0;points=[[0,0.5],[1,0.5]];portConstraint=eastwest;whiteSpace=wrap;html=1;" parent="Qg31qE5kq6Prw8yDMMe9-2" vertex="1">
          <mxGeometry y="26" width="320" height="26" as="geometry" />
        </mxCell>
        <mxCell id="Qg31qE5kq6Prw8yDMMe9-4" value="" style="line;strokeWidth=1;fillColor=none;align=left;verticalAlign=middle;spacingTop=-1;spacingLeft=3;spacingRight=3;rotatable=0;labelPosition=right;points=[];portConstraint=eastwest;strokeColor=inherit;" parent="Qg31qE5kq6Prw8yDMMe9-2" vertex="1">
          <mxGeometry y="52" width="320" height="8" as="geometry" />
        </mxCell>
        <mxCell id="Qg31qE5kq6Prw8yDMMe9-5" value="+ createProduct(name:String, price:double):Product" style="text;strokeColor=none;fillColor=none;align=left;verticalAlign=top;spacingLeft=4;spacingRight=4;overflow=hidden;rotatable=0;points=[[0,0.5],[1,0.5]];portConstraint=eastwest;whiteSpace=wrap;html=1;" parent="Qg31qE5kq6Prw8yDMMe9-2" vertex="1">
          <mxGeometry y="60" width="320" height="26" as="geometry" />
        </mxCell>
        <mxCell id="Qg31qE5kq6Prw8yDMMe9-6" value="&lt;p style=&quot;margin:0px;margin-top:4px;text-align:center;&quot;&gt;&lt;i&gt;&amp;lt;&amp;lt;Interface&amp;gt;&amp;gt;&lt;/i&gt;&lt;br&gt;&lt;b&gt;Product&lt;/b&gt;&lt;/p&gt;&lt;hr size=&quot;1&quot;&gt;&lt;p style=&quot;margin:0px;margin-left:4px;&quot;&gt;+ display(): void&lt;/p&gt;&lt;p style=&quot;margin:0px;margin-left:4px;&quot;&gt;+getPrice(): double&lt;/p&gt;" style="verticalAlign=top;align=left;overflow=fill;fontSize=12;fontFamily=Helvetica;html=1;whiteSpace=wrap;" parent="1" vertex="1">
          <mxGeometry x="530" y="210" width="140" height="83" as="geometry" />
        </mxCell>
        <mxCell id="Qg31qE5kq6Prw8yDMMe9-7" value="Tea" style="swimlane;fontStyle=1;align=center;verticalAlign=top;childLayout=stackLayout;horizontal=1;startSize=26;horizontalStack=0;resizeParent=1;resizeParentMax=0;resizeLast=0;collapsible=1;marginBottom=0;whiteSpace=wrap;html=1;" parent="1" vertex="1">
          <mxGeometry x="400" y="360" width="160" height="138" as="geometry" />
        </mxCell>
        <mxCell id="22c4XB-BZXuT_4FIts5C-10" value="" style="endArrow=block;dashed=1;endFill=0;endSize=12;html=1;rounded=0;" parent="Qg31qE5kq6Prw8yDMMe9-7" target="Qg31qE5kq6Prw8yDMMe9-6" edge="1">
          <mxGeometry width="160" relative="1" as="geometry">
            <mxPoint x="80" as="sourcePoint" />
            <mxPoint x="240" as="targetPoint" />
          </mxGeometry>
        </mxCell>
        <mxCell id="Qg31qE5kq6Prw8yDMMe9-8" value="- name:String" style="text;strokeColor=none;fillColor=none;align=left;verticalAlign=top;spacingLeft=4;spacingRight=4;overflow=hidden;rotatable=0;points=[[0,0.5],[1,0.5]];portConstraint=eastwest;whiteSpace=wrap;html=1;" parent="Qg31qE5kq6Prw8yDMMe9-7" vertex="1">
          <mxGeometry y="26" width="160" height="26" as="geometry" />
        </mxCell>
        <mxCell id="Qg31qE5kq6Prw8yDMMe9-11" value="- price: double" style="text;strokeColor=none;fillColor=none;align=left;verticalAlign=top;spacingLeft=4;spacingRight=4;overflow=hidden;rotatable=0;points=[[0,0.5],[1,0.5]];portConstraint=eastwest;whiteSpace=wrap;html=1;" parent="Qg31qE5kq6Prw8yDMMe9-7" vertex="1">
          <mxGeometry y="52" width="160" height="26" as="geometry" />
        </mxCell>
        <mxCell id="Qg31qE5kq6Prw8yDMMe9-9" value="" style="line;strokeWidth=1;fillColor=none;align=left;verticalAlign=middle;spacingTop=-1;spacingLeft=3;spacingRight=3;rotatable=0;labelPosition=right;points=[];portConstraint=eastwest;strokeColor=inherit;" parent="Qg31qE5kq6Prw8yDMMe9-7" vertex="1">
          <mxGeometry y="78" width="160" height="8" as="geometry" />
        </mxCell>
        <mxCell id="Qg31qE5kq6Prw8yDMMe9-10" value="+ display(): void" style="text;strokeColor=none;fillColor=none;align=left;verticalAlign=top;spacingLeft=4;spacingRight=4;overflow=hidden;rotatable=0;points=[[0,0.5],[1,0.5]];portConstraint=eastwest;whiteSpace=wrap;html=1;" parent="Qg31qE5kq6Prw8yDMMe9-7" vertex="1">
          <mxGeometry y="86" width="160" height="26" as="geometry" />
        </mxCell>
        <mxCell id="Qg31qE5kq6Prw8yDMMe9-12" value="+getPrice(): double" style="text;strokeColor=none;fillColor=none;align=left;verticalAlign=top;spacingLeft=4;spacingRight=4;overflow=hidden;rotatable=0;points=[[0,0.5],[1,0.5]];portConstraint=eastwest;whiteSpace=wrap;html=1;" parent="Qg31qE5kq6Prw8yDMMe9-7" vertex="1">
          <mxGeometry y="112" width="160" height="26" as="geometry" />
        </mxCell>
        <mxCell id="Qg31qE5kq6Prw8yDMMe9-13" value="Coffee" style="swimlane;fontStyle=1;align=center;verticalAlign=top;childLayout=stackLayout;horizontal=1;startSize=26;horizontalStack=0;resizeParent=1;resizeParentMax=0;resizeLast=0;collapsible=1;marginBottom=0;whiteSpace=wrap;html=1;" parent="1" vertex="1">
          <mxGeometry x="640" y="360" width="160" height="138" as="geometry" />
        </mxCell>
        <mxCell id="22c4XB-BZXuT_4FIts5C-11" value="" style="endArrow=block;dashed=1;endFill=0;endSize=12;html=1;rounded=0;" parent="Qg31qE5kq6Prw8yDMMe9-13" target="Qg31qE5kq6Prw8yDMMe9-6" edge="1">
          <mxGeometry width="160" relative="1" as="geometry">
            <mxPoint x="80" as="sourcePoint" />
            <mxPoint x="240" as="targetPoint" />
          </mxGeometry>
        </mxCell>
        <mxCell id="Qg31qE5kq6Prw8yDMMe9-14" value="- name:String" style="text;strokeColor=none;fillColor=none;align=left;verticalAlign=top;spacingLeft=4;spacingRight=4;overflow=hidden;rotatable=0;points=[[0,0.5],[1,0.5]];portConstraint=eastwest;whiteSpace=wrap;html=1;" parent="Qg31qE5kq6Prw8yDMMe9-13" vertex="1">
          <mxGeometry y="26" width="160" height="26" as="geometry" />
        </mxCell>
        <mxCell id="Qg31qE5kq6Prw8yDMMe9-15" value="- price: double" style="text;strokeColor=none;fillColor=none;align=left;verticalAlign=top;spacingLeft=4;spacingRight=4;overflow=hidden;rotatable=0;points=[[0,0.5],[1,0.5]];portConstraint=eastwest;whiteSpace=wrap;html=1;" parent="Qg31qE5kq6Prw8yDMMe9-13" vertex="1">
          <mxGeometry y="52" width="160" height="26" as="geometry" />
        </mxCell>
        <mxCell id="Qg31qE5kq6Prw8yDMMe9-16" value="" style="line;strokeWidth=1;fillColor=none;align=left;verticalAlign=middle;spacingTop=-1;spacingLeft=3;spacingRight=3;rotatable=0;labelPosition=right;points=[];portConstraint=eastwest;strokeColor=inherit;" parent="Qg31qE5kq6Prw8yDMMe9-13" vertex="1">
          <mxGeometry y="78" width="160" height="8" as="geometry" />
        </mxCell>
        <mxCell id="Qg31qE5kq6Prw8yDMMe9-17" value="+ display(): void" style="text;strokeColor=none;fillColor=none;align=left;verticalAlign=top;spacingLeft=4;spacingRight=4;overflow=hidden;rotatable=0;points=[[0,0.5],[1,0.5]];portConstraint=eastwest;whiteSpace=wrap;html=1;" parent="Qg31qE5kq6Prw8yDMMe9-13" vertex="1">
          <mxGeometry y="86" width="160" height="26" as="geometry" />
        </mxCell>
        <mxCell id="Qg31qE5kq6Prw8yDMMe9-18" value="+getPrice(): double" style="text;strokeColor=none;fillColor=none;align=left;verticalAlign=top;spacingLeft=4;spacingRight=4;overflow=hidden;rotatable=0;points=[[0,0.5],[1,0.5]];portConstraint=eastwest;whiteSpace=wrap;html=1;" parent="Qg31qE5kq6Prw8yDMMe9-13" vertex="1">
          <mxGeometry y="112" width="160" height="26" as="geometry" />
        </mxCell>
        <mxCell id="Qg31qE5kq6Prw8yDMMe9-19" value="&lt;p style=&quot;margin:0px;margin-top:4px;text-align:center;&quot;&gt;&lt;i&gt;&amp;lt;&amp;lt;Interface&amp;gt;&amp;gt;&lt;/i&gt;&lt;br&gt;&lt;b&gt;Command&lt;/b&gt;&lt;/p&gt;&lt;hr size=&quot;1&quot;&gt;&lt;p style=&quot;margin:0px;margin-left:4px;&quot;&gt;+ execute(): void&lt;/p&gt;&lt;p style=&quot;margin:0px;margin-left:4px;&quot;&gt;+ undo(): void&lt;/p&gt;" style="verticalAlign=top;align=left;overflow=fill;fontSize=12;fontFamily=Helvetica;html=1;whiteSpace=wrap;" parent="1" vertex="1">
          <mxGeometry x="1010" y="117" width="140" height="83" as="geometry" />
        </mxCell>
        <mxCell id="Qg31qE5kq6Prw8yDMMe9-20" value="AddProductCommand" style="swimlane;fontStyle=1;align=center;verticalAlign=top;childLayout=stackLayout;horizontal=1;startSize=26;horizontalStack=0;resizeParent=1;resizeParentMax=0;resizeLast=0;collapsible=1;marginBottom=0;whiteSpace=wrap;html=1;" parent="1" vertex="1">
          <mxGeometry x="880" y="322" width="160" height="138" as="geometry" />
        </mxCell>
        <mxCell id="Qg31qE5kq6Prw8yDMMe9-21" value="- product:Product" style="text;strokeColor=none;fillColor=none;align=left;verticalAlign=top;spacingLeft=4;spacingRight=4;overflow=hidden;rotatable=0;points=[[0,0.5],[1,0.5]];portConstraint=eastwest;whiteSpace=wrap;html=1;" parent="Qg31qE5kq6Prw8yDMMe9-20" vertex="1">
          <mxGeometry y="26" width="160" height="26" as="geometry" />
        </mxCell>
        <mxCell id="Qg31qE5kq6Prw8yDMMe9-26" value="- productList: List&amp;lt;Product&amp;gt;" style="text;strokeColor=none;fillColor=none;align=left;verticalAlign=top;spacingLeft=4;spacingRight=4;overflow=hidden;rotatable=0;points=[[0,0.5],[1,0.5]];portConstraint=eastwest;whiteSpace=wrap;html=1;" parent="Qg31qE5kq6Prw8yDMMe9-20" vertex="1">
          <mxGeometry y="52" width="160" height="26" as="geometry" />
        </mxCell>
        <mxCell id="Qg31qE5kq6Prw8yDMMe9-22" value="" style="line;strokeWidth=1;fillColor=none;align=left;verticalAlign=middle;spacingTop=-1;spacingLeft=3;spacingRight=3;rotatable=0;labelPosition=right;points=[];portConstraint=eastwest;strokeColor=inherit;" parent="Qg31qE5kq6Prw8yDMMe9-20" vertex="1">
          <mxGeometry y="78" width="160" height="8" as="geometry" />
        </mxCell>
        <mxCell id="Qg31qE5kq6Prw8yDMMe9-23" value="+ execute(): void" style="text;strokeColor=none;fillColor=none;align=left;verticalAlign=top;spacingLeft=4;spacingRight=4;overflow=hidden;rotatable=0;points=[[0,0.5],[1,0.5]];portConstraint=eastwest;whiteSpace=wrap;html=1;" parent="Qg31qE5kq6Prw8yDMMe9-20" vertex="1">
          <mxGeometry y="86" width="160" height="26" as="geometry" />
        </mxCell>
        <mxCell id="22c4XB-BZXuT_4FIts5C-1" value="+ undo(): void" style="text;strokeColor=none;fillColor=none;align=left;verticalAlign=top;spacingLeft=4;spacingRight=4;overflow=hidden;rotatable=0;points=[[0,0.5],[1,0.5]];portConstraint=eastwest;whiteSpace=wrap;html=1;" parent="Qg31qE5kq6Prw8yDMMe9-20" vertex="1">
          <mxGeometry y="112" width="160" height="26" as="geometry" />
        </mxCell>
        <mxCell id="22c4XB-BZXuT_4FIts5C-2" value="RemoveProductCommand" style="swimlane;fontStyle=1;align=center;verticalAlign=top;childLayout=stackLayout;horizontal=1;startSize=26;horizontalStack=0;resizeParent=1;resizeParentMax=0;resizeLast=0;collapsible=1;marginBottom=0;whiteSpace=wrap;html=1;" parent="1" vertex="1">
          <mxGeometry x="1100" y="322" width="180" height="138" as="geometry" />
        </mxCell>
        <mxCell id="22c4XB-BZXuT_4FIts5C-3" value="- product:Product" style="text;strokeColor=none;fillColor=none;align=left;verticalAlign=top;spacingLeft=4;spacingRight=4;overflow=hidden;rotatable=0;points=[[0,0.5],[1,0.5]];portConstraint=eastwest;whiteSpace=wrap;html=1;" parent="22c4XB-BZXuT_4FIts5C-2" vertex="1">
          <mxGeometry y="26" width="180" height="26" as="geometry" />
        </mxCell>
        <mxCell id="22c4XB-BZXuT_4FIts5C-6" value="- productList: List&amp;lt;Product&amp;gt;" style="text;strokeColor=none;fillColor=none;align=left;verticalAlign=top;spacingLeft=4;spacingRight=4;overflow=hidden;rotatable=0;points=[[0,0.5],[1,0.5]];portConstraint=eastwest;whiteSpace=wrap;html=1;" parent="22c4XB-BZXuT_4FIts5C-2" vertex="1">
          <mxGeometry y="52" width="180" height="26" as="geometry" />
        </mxCell>
        <mxCell id="22c4XB-BZXuT_4FIts5C-4" value="" style="line;strokeWidth=1;fillColor=none;align=left;verticalAlign=middle;spacingTop=-1;spacingLeft=3;spacingRight=3;rotatable=0;labelPosition=right;points=[];portConstraint=eastwest;strokeColor=inherit;" parent="22c4XB-BZXuT_4FIts5C-2" vertex="1">
          <mxGeometry y="78" width="180" height="8" as="geometry" />
        </mxCell>
        <mxCell id="22c4XB-BZXuT_4FIts5C-5" value="+ execute(): void" style="text;strokeColor=none;fillColor=none;align=left;verticalAlign=top;spacingLeft=4;spacingRight=4;overflow=hidden;rotatable=0;points=[[0,0.5],[1,0.5]];portConstraint=eastwest;whiteSpace=wrap;html=1;" parent="22c4XB-BZXuT_4FIts5C-2" vertex="1">
          <mxGeometry y="86" width="180" height="26" as="geometry" />
        </mxCell>
        <mxCell id="22c4XB-BZXuT_4FIts5C-7" value="+ undo(): void" style="text;strokeColor=none;fillColor=none;align=left;verticalAlign=top;spacingLeft=4;spacingRight=4;overflow=hidden;rotatable=0;points=[[0,0.5],[1,0.5]];portConstraint=eastwest;whiteSpace=wrap;html=1;" parent="22c4XB-BZXuT_4FIts5C-2" vertex="1">
          <mxGeometry y="112" width="180" height="26" as="geometry" />
        </mxCell>
        <mxCell id="22c4XB-BZXuT_4FIts5C-9" value="" style="endArrow=block;dashed=1;endFill=0;endSize=12;html=1;rounded=0;" parent="22c4XB-BZXuT_4FIts5C-2" target="Qg31qE5kq6Prw8yDMMe9-19" edge="1">
          <mxGeometry width="160" relative="1" as="geometry">
            <mxPoint x="100" y="-2" as="sourcePoint" />
            <mxPoint x="260" y="-2" as="targetPoint" />
            <Array as="points">
              <mxPoint x="100" y="-42" />
              <mxPoint x="-20" y="-42" />
            </Array>
          </mxGeometry>
        </mxCell>
        <mxCell id="22c4XB-BZXuT_4FIts5C-8" value="" style="endArrow=block;dashed=1;endFill=0;endSize=12;html=1;rounded=0;" parent="1" target="Qg31qE5kq6Prw8yDMMe9-19" edge="1">
          <mxGeometry width="160" relative="1" as="geometry">
            <mxPoint x="950" y="320" as="sourcePoint" />
            <mxPoint x="1110" y="320" as="targetPoint" />
            <Array as="points">
              <mxPoint x="950" y="280" />
              <mxPoint x="1080" y="280" />
            </Array>
          </mxGeometry>
        </mxCell>
        <mxCell id="22c4XB-BZXuT_4FIts5C-14" value="ProductManager" style="swimlane;fontStyle=1;align=center;verticalAlign=top;childLayout=stackLayout;horizontal=1;startSize=26;horizontalStack=0;resizeParent=1;resizeParentMax=0;resizeLast=0;collapsible=1;marginBottom=0;whiteSpace=wrap;html=1;" parent="1" vertex="1">
          <mxGeometry x="640" y="-228" width="300" height="294" as="geometry" />
        </mxCell>
        <mxCell id="22c4XB-BZXuT_4FIts5C-15" value="- commandHistory:List&amp;lt;Command" style="text;strokeColor=none;fillColor=none;align=left;verticalAlign=top;spacingLeft=4;spacingRight=4;overflow=hidden;rotatable=0;points=[[0,0.5],[1,0.5]];portConstraint=eastwest;whiteSpace=wrap;html=1;" parent="22c4XB-BZXuT_4FIts5C-14" vertex="1">
          <mxGeometry y="26" width="300" height="26" as="geometry" />
        </mxCell>
        <mxCell id="22c4XB-BZXuT_4FIts5C-18" value="- productList: List&amp;lt;Product&amp;gt;" style="text;strokeColor=none;fillColor=none;align=left;verticalAlign=top;spacingLeft=4;spacingRight=4;overflow=hidden;rotatable=0;points=[[0,0.5],[1,0.5]];portConstraint=eastwest;whiteSpace=wrap;html=1;" parent="22c4XB-BZXuT_4FIts5C-14" vertex="1">
          <mxGeometry y="52" width="300" height="26" as="geometry" />
        </mxCell>
        <mxCell id="22c4XB-BZXuT_4FIts5C-19" value="- productFactory:ProductFactory" style="text;strokeColor=none;fillColor=none;align=left;verticalAlign=top;spacingLeft=4;spacingRight=4;overflow=hidden;rotatable=0;points=[[0,0.5],[1,0.5]];portConstraint=eastwest;whiteSpace=wrap;html=1;" parent="22c4XB-BZXuT_4FIts5C-14" vertex="1">
          <mxGeometry y="78" width="300" height="26" as="geometry" />
        </mxCell>
        <mxCell id="22c4XB-BZXuT_4FIts5C-16" value="" style="line;strokeWidth=1;fillColor=none;align=left;verticalAlign=middle;spacingTop=-1;spacingLeft=3;spacingRight=3;rotatable=0;labelPosition=right;points=[];portConstraint=eastwest;strokeColor=inherit;" parent="22c4XB-BZXuT_4FIts5C-14" vertex="1">
          <mxGeometry y="104" width="300" height="8" as="geometry" />
        </mxCell>
        <mxCell id="22c4XB-BZXuT_4FIts5C-17" value="+ createProduct(name:String, price:double): void" style="text;strokeColor=none;fillColor=none;align=left;verticalAlign=top;spacingLeft=4;spacingRight=4;overflow=hidden;rotatable=0;points=[[0,0.5],[1,0.5]];portConstraint=eastwest;whiteSpace=wrap;html=1;" parent="22c4XB-BZXuT_4FIts5C-14" vertex="1">
          <mxGeometry y="112" width="300" height="26" as="geometry" />
        </mxCell>
        <mxCell id="22c4XB-BZXuT_4FIts5C-35" value="" style="endArrow=open;html=1;endSize=12;startArrow=diamondThin;startSize=14;startFill=0;edgeStyle=orthogonalEdgeStyle;rounded=0;" parent="22c4XB-BZXuT_4FIts5C-14" target="Qg31qE5kq6Prw8yDMMe9-1" edge="1">
          <mxGeometry relative="1" as="geometry">
            <mxPoint y="128" as="sourcePoint" />
            <mxPoint x="160" y="128" as="targetPoint" />
            <Array as="points">
              <mxPoint x="-220" y="128" />
              <mxPoint x="-220" y="308" />
            </Array>
          </mxGeometry>
        </mxCell>
        <mxCell id="22c4XB-BZXuT_4FIts5C-36" value="0..n" style="edgeLabel;resizable=0;html=1;align=left;verticalAlign=top;" parent="22c4XB-BZXuT_4FIts5C-35" connectable="0" vertex="1">
          <mxGeometry x="-1" relative="1" as="geometry" />
        </mxCell>
        <mxCell id="22c4XB-BZXuT_4FIts5C-37" value="1" style="edgeLabel;resizable=0;html=1;align=right;verticalAlign=top;" parent="22c4XB-BZXuT_4FIts5C-35" connectable="0" vertex="1">
          <mxGeometry x="1" relative="1" as="geometry" />
        </mxCell>
        <mxCell id="22c4XB-BZXuT_4FIts5C-20" value="+ addProduct(product:Product): void" style="text;strokeColor=none;fillColor=none;align=left;verticalAlign=top;spacingLeft=4;spacingRight=4;overflow=hidden;rotatable=0;points=[[0,0.5],[1,0.5]];portConstraint=eastwest;whiteSpace=wrap;html=1;" parent="22c4XB-BZXuT_4FIts5C-14" vertex="1">
          <mxGeometry y="138" width="300" height="26" as="geometry" />
        </mxCell>
        <mxCell id="22c4XB-BZXuT_4FIts5C-21" value="+ removeProduct(product: Product): void" style="text;strokeColor=none;fillColor=none;align=left;verticalAlign=top;spacingLeft=4;spacingRight=4;overflow=hidden;rotatable=0;points=[[0,0.5],[1,0.5]];portConstraint=eastwest;whiteSpace=wrap;html=1;" parent="22c4XB-BZXuT_4FIts5C-14" vertex="1">
          <mxGeometry y="164" width="300" height="26" as="geometry" />
        </mxCell>
        <mxCell id="22c4XB-BZXuT_4FIts5C-22" value="+ undoLastCommand(): void" style="text;strokeColor=none;fillColor=none;align=left;verticalAlign=top;spacingLeft=4;spacingRight=4;overflow=hidden;rotatable=0;points=[[0,0.5],[1,0.5]];portConstraint=eastwest;whiteSpace=wrap;html=1;" parent="22c4XB-BZXuT_4FIts5C-14" vertex="1">
          <mxGeometry y="190" width="300" height="26" as="geometry" />
        </mxCell>
        <mxCell id="22c4XB-BZXuT_4FIts5C-23" value="+displayManager(): void" style="text;strokeColor=none;fillColor=none;align=left;verticalAlign=top;spacingLeft=4;spacingRight=4;overflow=hidden;rotatable=0;points=[[0,0.5],[1,0.5]];portConstraint=eastwest;whiteSpace=wrap;html=1;" parent="22c4XB-BZXuT_4FIts5C-14" vertex="1">
          <mxGeometry y="216" width="300" height="26" as="geometry" />
        </mxCell>
        <mxCell id="22c4XB-BZXuT_4FIts5C-24" value="+ getProductList(): List&amp;lt;Product&amp;gt;" style="text;strokeColor=none;fillColor=none;align=left;verticalAlign=top;spacingLeft=4;spacingRight=4;overflow=hidden;rotatable=0;points=[[0,0.5],[1,0.5]];portConstraint=eastwest;whiteSpace=wrap;html=1;" parent="22c4XB-BZXuT_4FIts5C-14" vertex="1">
          <mxGeometry y="242" width="300" height="26" as="geometry" />
        </mxCell>
        <mxCell id="22c4XB-BZXuT_4FIts5C-25" value="+ setProductList(productList: List&amp;lt;Product&amp;gt;): void" style="text;strokeColor=none;fillColor=none;align=left;verticalAlign=top;spacingLeft=4;spacingRight=4;overflow=hidden;rotatable=0;points=[[0,0.5],[1,0.5]];portConstraint=eastwest;whiteSpace=wrap;html=1;" parent="22c4XB-BZXuT_4FIts5C-14" vertex="1">
          <mxGeometry y="268" width="300" height="26" as="geometry" />
        </mxCell>
        <mxCell id="22c4XB-BZXuT_4FIts5C-26" value="create" style="endArrow=open;endSize=12;dashed=1;html=1;rounded=0;" parent="1" source="Qg31qE5kq6Prw8yDMMe9-2" target="Qg31qE5kq6Prw8yDMMe9-7" edge="1">
          <mxGeometry x="0.2341" y="1" width="160" relative="1" as="geometry">
            <mxPoint x="400" y="240" as="sourcePoint" />
            <mxPoint x="560" y="240" as="targetPoint" />
            <Array as="points">
              <mxPoint x="240" y="430" />
            </Array>
            <mxPoint as="offset" />
          </mxGeometry>
        </mxCell>
        <mxCell id="22c4XB-BZXuT_4FIts5C-29" value="create" style="endArrow=open;endSize=12;dashed=1;html=1;rounded=0;" parent="1" source="Qg31qE5kq6Prw8yDMMe9-2" target="Qg31qE5kq6Prw8yDMMe9-13" edge="1">
          <mxGeometry x="0.2341" y="1" width="160" relative="1" as="geometry">
            <mxPoint x="250" y="296" as="sourcePoint" />
            <mxPoint x="410" y="439" as="targetPoint" />
            <Array as="points">
              <mxPoint x="240" y="550" />
              <mxPoint x="720" y="550" />
            </Array>
            <mxPoint as="offset" />
          </mxGeometry>
        </mxCell>
        <mxCell id="22c4XB-BZXuT_4FIts5C-30" value="" style="endArrow=open;html=1;endSize=12;startArrow=diamondThin;startSize=14;startFill=0;edgeStyle=orthogonalEdgeStyle;rounded=0;entryX=1;entryY=0.5;entryDx=0;entryDy=0;" parent="1" target="Qg31qE5kq6Prw8yDMMe9-19" edge="1">
          <mxGeometry x="0.0021" relative="1" as="geometry">
            <mxPoint x="940" y="-60" as="sourcePoint" />
            <mxPoint x="1100" y="-60" as="targetPoint" />
            <Array as="points">
              <mxPoint x="1200" y="-60" />
              <mxPoint x="1200" y="159" />
            </Array>
            <mxPoint as="offset" />
          </mxGeometry>
        </mxCell>
        <mxCell id="22c4XB-BZXuT_4FIts5C-31" value="0..n" style="edgeLabel;resizable=0;html=1;align=left;verticalAlign=top;" parent="22c4XB-BZXuT_4FIts5C-30" connectable="0" vertex="1">
          <mxGeometry x="-1" relative="1" as="geometry" />
        </mxCell>
        <mxCell id="22c4XB-BZXuT_4FIts5C-32" value="1" style="edgeLabel;resizable=0;html=1;align=right;verticalAlign=top;" parent="22c4XB-BZXuT_4FIts5C-30" connectable="0" vertex="1">
          <mxGeometry x="1" relative="1" as="geometry" />
        </mxCell>
        <mxCell id="22c4XB-BZXuT_4FIts5C-39" value="" style="endArrow=open;endSize=12;dashed=1;html=1;rounded=0;entryX=0.405;entryY=-0.024;entryDx=0;entryDy=0;entryPerimeter=0;" parent="1" target="Qg31qE5kq6Prw8yDMMe9-6" edge="1">
          <mxGeometry x="0.0348" y="7" width="160" relative="1" as="geometry">
            <mxPoint x="400" y="100" as="sourcePoint" />
            <mxPoint x="560" y="100" as="targetPoint" />
            <Array as="points">
              <mxPoint x="587" y="100" />
            </Array>
            <mxPoint as="offset" />
          </mxGeometry>
        </mxCell>
      </root>
    </mxGraphModel>
  </diagram>
  <diagram id="Ku3xxFi4Va0p32LsqN4G" name="ThongKe">
    <mxGraphModel dx="1290" dy="573" grid="1" gridSize="10" guides="1" tooltips="1" connect="1" arrows="1" fold="1" page="1" pageScale="1" pageWidth="827" pageHeight="1169" math="0" shadow="0">
      <root>
        <mxCell id="0" />
        <mxCell id="1" parent="0" />
        <mxCell id="P-QlZscgfx9Bbe-2YJxR-1" value="StatisticsDisplay" style="swimlane;fontStyle=1;align=center;verticalAlign=top;childLayout=stackLayout;horizontal=1;startSize=26;horizontalStack=0;resizeParent=1;resizeParentMax=0;resizeLast=0;collapsible=1;marginBottom=0;" vertex="1" parent="1">
          <mxGeometry x="540" y="400" width="230" height="86" as="geometry" />
        </mxCell>
        <mxCell id="P-QlZscgfx9Bbe-2YJxR-2" value="- productData: ProductData" style="text;strokeColor=none;fillColor=none;align=left;verticalAlign=top;spacingLeft=4;spacingRight=4;overflow=hidden;rotatable=0;points=[[0,0.5],[1,0.5]];portConstraint=eastwest;" vertex="1" parent="P-QlZscgfx9Bbe-2YJxR-1">
          <mxGeometry y="26" width="230" height="26" as="geometry" />
        </mxCell>
        <mxCell id="P-QlZscgfx9Bbe-2YJxR-3" value="" style="line;strokeWidth=1;fillColor=none;align=left;verticalAlign=middle;spacingTop=-1;spacingLeft=3;spacingRight=3;rotatable=0;labelPosition=right;points=[];portConstraint=eastwest;strokeColor=inherit;" vertex="1" parent="P-QlZscgfx9Bbe-2YJxR-1">
          <mxGeometry y="52" width="230" height="8" as="geometry" />
        </mxCell>
        <mxCell id="P-QlZscgfx9Bbe-2YJxR-4" value="+ update(): void" style="text;strokeColor=none;fillColor=none;align=left;verticalAlign=top;spacingLeft=4;spacingRight=4;overflow=hidden;rotatable=0;points=[[0,0.5],[1,0.5]];portConstraint=eastwest;" vertex="1" parent="P-QlZscgfx9Bbe-2YJxR-1">
          <mxGeometry y="60" width="230" height="26" as="geometry" />
        </mxCell>
        <mxCell id="P-QlZscgfx9Bbe-2YJxR-5" value="ProductData" style="swimlane;fontStyle=1;align=center;verticalAlign=top;childLayout=stackLayout;horizontal=1;startSize=26;horizontalStack=0;resizeParent=1;resizeParentMax=0;resizeLast=0;collapsible=1;marginBottom=0;" vertex="1" parent="1">
          <mxGeometry x="40" y="380" width="326" height="244" as="geometry" />
        </mxCell>
        <mxCell id="P-QlZscgfx9Bbe-2YJxR-6" value="- productList: List&lt;String&gt;" style="text;strokeColor=none;fillColor=none;align=left;verticalAlign=top;spacingLeft=4;spacingRight=4;overflow=hidden;rotatable=0;points=[[0,0.5],[1,0.5]];portConstraint=eastwest;" vertex="1" parent="P-QlZscgfx9Bbe-2YJxR-5">
          <mxGeometry y="26" width="326" height="26" as="geometry" />
        </mxCell>
        <mxCell id="P-QlZscgfx9Bbe-2YJxR-7" value="- observerList: List&lt;Observer&gt;" style="text;strokeColor=none;fillColor=none;align=left;verticalAlign=top;spacingLeft=4;spacingRight=4;overflow=hidden;rotatable=0;points=[[0,0.5],[1,0.5]];portConstraint=eastwest;" vertex="1" parent="P-QlZscgfx9Bbe-2YJxR-5">
          <mxGeometry y="52" width="326" height="26" as="geometry" />
        </mxCell>
        <mxCell id="P-QlZscgfx9Bbe-2YJxR-8" value="" style="line;strokeWidth=1;fillColor=none;align=left;verticalAlign=middle;spacingTop=-1;spacingLeft=3;spacingRight=3;rotatable=0;labelPosition=right;points=[];portConstraint=eastwest;strokeColor=inherit;" vertex="1" parent="P-QlZscgfx9Bbe-2YJxR-5">
          <mxGeometry y="78" width="326" height="8" as="geometry" />
        </mxCell>
        <mxCell id="P-QlZscgfx9Bbe-2YJxR-9" value="+ notifyObservers(): void" style="text;strokeColor=none;fillColor=none;align=left;verticalAlign=top;spacingLeft=4;spacingRight=4;overflow=hidden;rotatable=0;points=[[0,0.5],[1,0.5]];portConstraint=eastwest;" vertex="1" parent="P-QlZscgfx9Bbe-2YJxR-5">
          <mxGeometry y="86" width="326" height="26" as="geometry" />
        </mxCell>
        <mxCell id="P-QlZscgfx9Bbe-2YJxR-10" value="+ addProduct(String product): void" style="text;strokeColor=none;fillColor=none;align=left;verticalAlign=top;spacingLeft=4;spacingRight=4;overflow=hidden;rotatable=0;points=[[0,0.5],[1,0.5]];portConstraint=eastwest;" vertex="1" parent="P-QlZscgfx9Bbe-2YJxR-5">
          <mxGeometry y="112" width="326" height="26" as="geometry" />
        </mxCell>
        <mxCell id="P-QlZscgfx9Bbe-2YJxR-11" value="+ removeProduct(String product): void" style="text;strokeColor=none;fillColor=none;align=left;verticalAlign=top;spacingLeft=4;spacingRight=4;overflow=hidden;rotatable=0;points=[[0,0.5],[1,0.5]];portConstraint=eastwest;" vertex="1" parent="P-QlZscgfx9Bbe-2YJxR-5">
          <mxGeometry y="138" width="326" height="28" as="geometry" />
        </mxCell>
        <mxCell id="P-QlZscgfx9Bbe-2YJxR-12" value="+ registerObserver(Observer observer): void" style="text;strokeColor=none;fillColor=none;align=left;verticalAlign=top;spacingLeft=4;spacingRight=4;overflow=hidden;rotatable=0;points=[[0,0.5],[1,0.5]];portConstraint=eastwest;" vertex="1" parent="P-QlZscgfx9Bbe-2YJxR-5">
          <mxGeometry y="166" width="326" height="26" as="geometry" />
        </mxCell>
        <mxCell id="P-QlZscgfx9Bbe-2YJxR-13" value="+ unregisterObserver(Observer observer): void" style="text;strokeColor=none;fillColor=none;align=left;verticalAlign=top;spacingLeft=4;spacingRight=4;overflow=hidden;rotatable=0;points=[[0,0.5],[1,0.5]];portConstraint=eastwest;" vertex="1" parent="P-QlZscgfx9Bbe-2YJxR-5">
          <mxGeometry y="192" width="326" height="26" as="geometry" />
        </mxCell>
        <mxCell id="P-QlZscgfx9Bbe-2YJxR-14" value="+ getProductList():  List&lt;String&gt;: void" style="text;strokeColor=none;fillColor=none;align=left;verticalAlign=top;spacingLeft=4;spacingRight=4;overflow=hidden;rotatable=0;points=[[0,0.5],[1,0.5]];portConstraint=eastwest;" vertex="1" parent="P-QlZscgfx9Bbe-2YJxR-5">
          <mxGeometry y="218" width="326" height="26" as="geometry" />
        </mxCell>
        <mxCell id="P-QlZscgfx9Bbe-2YJxR-15" value="&lt;p style=&quot;margin:0px;margin-top:4px;text-align:center;&quot;&gt;&lt;i&gt;&amp;lt;&amp;lt;Interface&amp;gt;&amp;gt;&lt;/i&gt;&lt;br&gt;&lt;b&gt;Observer&lt;/b&gt;&lt;br&gt;&lt;/p&gt;&lt;p style=&quot;margin:0px;margin-left:4px;&quot;&gt;&lt;br&gt;&lt;/p&gt;&lt;hr size=&quot;1&quot;&gt;&lt;p style=&quot;margin:0px;margin-left:4px;&quot;&gt;+ update(): void&lt;br&gt;&lt;/p&gt;" style="verticalAlign=top;align=left;overflow=fill;fontSize=12;fontFamily=Helvetica;html=1;" vertex="1" parent="1">
          <mxGeometry x="540" y="211" width="230" height="89" as="geometry" />
        </mxCell>
        <mxCell id="P-QlZscgfx9Bbe-2YJxR-16" value="" style="endArrow=block;dashed=1;endFill=0;endSize=12;html=1;rounded=0;exitX=0.5;exitY=0;exitDx=0;exitDy=0;" edge="1" parent="1" source="P-QlZscgfx9Bbe-2YJxR-1" target="P-QlZscgfx9Bbe-2YJxR-15">
          <mxGeometry width="160" relative="1" as="geometry">
            <mxPoint x="180" y="570" as="sourcePoint" />
            <mxPoint x="340" y="570" as="targetPoint" />
          </mxGeometry>
        </mxCell>
        <mxCell id="P-QlZscgfx9Bbe-2YJxR-18" value="" style="endArrow=block;dashed=1;endFill=0;endSize=12;html=1;rounded=0;exitX=0.5;exitY=0;exitDx=0;exitDy=0;" edge="1" parent="1" source="P-QlZscgfx9Bbe-2YJxR-5" target="P-QlZscgfx9Bbe-2YJxR-20">
          <mxGeometry width="160" relative="1" as="geometry">
            <mxPoint x="390" y="400" as="sourcePoint" />
            <mxPoint x="203" y="286" as="targetPoint" />
          </mxGeometry>
        </mxCell>
        <mxCell id="P-QlZscgfx9Bbe-2YJxR-19" value="" style="endArrow=open;html=1;endSize=12;startArrow=diamondThin;startSize=14;startFill=0;edgeStyle=orthogonalEdgeStyle;align=left;verticalAlign=bottom;rounded=0;" edge="1" parent="1" source="P-QlZscgfx9Bbe-2YJxR-1" target="P-QlZscgfx9Bbe-2YJxR-5">
          <mxGeometry x="-1" y="3" relative="1" as="geometry">
            <mxPoint x="263" y="249" as="sourcePoint" />
            <mxPoint x="550" y="248.5" as="targetPoint" />
            <Array as="points" />
          </mxGeometry>
        </mxCell>
        <mxCell id="P-QlZscgfx9Bbe-2YJxR-21" style="edgeStyle=orthogonalEdgeStyle;rounded=0;orthogonalLoop=1;jettySize=auto;html=1;" edge="1" parent="1" source="P-QlZscgfx9Bbe-2YJxR-20" target="P-QlZscgfx9Bbe-2YJxR-15">
          <mxGeometry relative="1" as="geometry" />
        </mxCell>
        <mxCell id="P-QlZscgfx9Bbe-2YJxR-20" value="&lt;p style=&quot;margin:0px;margin-top:4px;text-align:center;&quot;&gt;&lt;i&gt;&amp;lt;&amp;lt;Interface&amp;gt;&amp;gt;&lt;/i&gt;&lt;br&gt;&lt;b&gt;Subject&lt;/b&gt;&lt;/p&gt;&lt;hr size=&quot;1&quot;&gt;&lt;p style=&quot;margin:0px;margin-left:4px;&quot;&gt;+ registerObserver(Observer observer): void&lt;/p&gt;&lt;p style=&quot;margin:0px;margin-left:4px;&quot;&gt;+ unregisterObserver(Observer observer): void&lt;/p&gt;&lt;p style=&quot;margin:0px;margin-left:4px;&quot;&gt;+ notifyObserver(): void&lt;/p&gt;" style="verticalAlign=top;align=left;overflow=fill;fontSize=12;fontFamily=Helvetica;html=1;whiteSpace=wrap;" vertex="1" parent="1">
          <mxGeometry x="73" y="150" width="260" height="140" as="geometry" />
        </mxCell>
      </root>
    </mxGraphModel>
  </diagram>
</mxfile>
